<svg xmlns="http://www.w3.org/2000/svg" height="24" viewBox="0 -960 960 960" width="24"><path d="M200-400q-33.846 0-56.923-23.077Q120-446.154 120-480q0-33.846 23.077-56.923Q166.154-560 200-560v-95.385q0-26.654 18.981-45.634Q237.961-720 264.615-720H400q0-33.846 23.077-56.923Q446.154-800 480-800q33.846 0 56.923 23.077Q560-753.846 560-720h135.385q26.654 0 45.634 18.981Q760-682.039 760-655.385V-560q33.846 0 56.923 23.077Q840-513.846 840-480q0 33.846-23.077 56.923Q793.846-400 760-400v175.385q0 26.654-18.981 45.634Q722.039-160 695.385-160h-430.77q-26.654 0-45.634-18.981Q200-197.961 200-224.615V-400Zm159.91-60q16.629 0 28.359-11.64Q400-483.28 400-499.91q0-16.629-11.64-28.359Q376.72-540 360.09-540q-16.629 0-28.359 11.64Q320-516.719 320-500.09q0 16.629 11.64 28.359Q343.28-460 359.91-460Zm239.999 0q16.63 0 28.36-11.64Q640-483.28 640-499.91q0-16.629-11.64-28.359Q616.719-540 600.091-540q-16.63 0-28.36 11.64Q560-516.719 560-500.09q0 16.629 11.64 28.359Q583.281-460 599.909-460ZM360-300h240q8.5 0 14.25-5.758 5.75-5.757 5.75-14.269t-5.75-14.242Q608.5-340 600-340H360q-8.5 0-14.25 5.758-5.75 5.757-5.75 14.269t5.75 14.242Q351.5-300 360-300Zm-95.385 100h430.77q10.769 0 17.692-6.923T720-224.615v-430.77q0-10.769-6.923-17.692T695.385-680h-430.77q-10.769 0-17.692 6.923T240-655.385v430.77q0 10.769 6.923 17.692T264.615-200ZM480-440Z"/></svg>